<svg xmlns="http://www.w3.org/2000/svg" version="1.1" xmlns:xlink="http://www.w3.org/1999/xlink" xmlns:svgjs="http://svgjs.dev/svgjs" width="100%" height="100%" viewBox="0 0 1000 600"><rect width="1000" height="600" x="0" y="0" fill="#ff0000"/><g><rect width="333.3333333333333" height="333.3333333333333" rx="13.333333333333334" ry="13.333333333333334" y="151.61946357363524" fill="#161b21" transform="matrix(0.9660176104821716,0,0,0.9660176104821716,0,-7.469997188345474)" x="129.39723205566406"/><path d="M290.5042429173136 308.24000528371187Q291.3614054971546 291.7872457650966 290.67091341894934 275.7630675364018Q289.9804213407441 259.73888930770704 290.67091341894934 243.28612978909172L290.67091341894934 243.28612978909172Q287.93275517779045 243.28612978909172 284.0755235685059 243.35756000407846Q280.21829195922123 243.45280029072745 276.52773085157236 243.61947079236322Q272.8371697439235 243.78614129399898 269.67043021284417 243.95281179563474Q266.50369068176474 244.14329236893275 265.28937702699 243.95281179563474L265.28937702699 243.95281179563474Q263.76553244060597 246.02428803025055 262.1226374959106 250.47677143109146Q260.5035526228776 254.92925483193235 259.21780875311606 259.47697851942223Q257.9320648833545 264.02470220691214 256.8129915152287 267.45335252627626Q255.69391814710292 270.8820028456404 255.19390664219563 270.71533234400465L255.19390664219563 270.71533234400465Q254.67008506562613 270.71533234400465 254.1462634890566 270.19151076743515L254.1462634890566 270.19151076743515Q252.7890894043083 268.14384460448156 251.50334553454678 264.52471371181946Q250.2176016647852 260.92939289081954 248.83661750837467 257.00073106654816Q247.47944342362638 253.04825917061453 245.93178876558008 249.52436856460142Q244.38413410753378 246.02428803025055 242.83647944948748 244.30996287056848L242.83647944948748 244.30996287056848L242.66980894785172 244.30996287056848Q239.76498020505713 244.47663337220425 236.6696708889645 244.38139308555526Q233.5743615728719 244.30996287056848 230.50286232844155 244.2147225839195Q227.40755301234896 244.14329236893275 224.50272426955436 244.30996287056848Q221.57408545509753 244.47663337220425 219.3597487905082 245.16712545040951L219.3597487905082 245.16712545040951Q219.1930782888724 268.4771856077531 219.09783800222343 285.9537782078452Q219.00259771557444 303.4541808795995 218.93116750058766 316.1449490755792Q218.83592721393867 328.8119071998966 218.83592721393867 337.3835329983069Q218.83592721393867 345.95515879671717 218.93116750058766 351.1933745624124Q219.00259771557444 356.4315903281075 219.1930782888724 359.0030780676306Q219.3597487905082 361.5745658071537 219.52641929214394 362.2412478136967L219.52641929214394 362.2412478136967Q219.6930897937797 362.76506939026626 220.05024086871344 362.76506939026626L220.05024086871344 362.76506939026626Q225.52655735103116 362.76506939026626 232.05051698648788 362.931739891902Q238.55066655028233 363.09841039353773 244.05079310426225 362.2412478136967L244.05079310426225 362.2412478136967Q243.00314995112325 346.31230987165094 242.5745686612027 329.8595503530356Q242.14598737128222 313.38298076275805 243.52697152769275 297.28737231907655L243.52697152769275 297.28737231907655Q243.52697152769275 297.28737231907655 244.12222331924903 299.0016974787586Q244.71747511080528 300.7160226384406 245.5746376906463 303.2875103779637Q246.43180027048734 305.8589981174868 247.64611392526214 308.93049736191716Q248.83661750837467 312.02580667800976 249.95569087650046 314.76396491916864Q251.07476424462624 317.50212316032747 252.19383761275205 319.31168860665855Q253.28910090921556 321.09744398132733 254.1462634890566 321.09744398132733L254.1462634890566 321.09744398132733Q254.8367555672619 321.09744398132733 256.2177397236724 317.85927423526124Q257.5749138084207 314.59729441753285 259.122568466467 310.3114815183277Q260.6702231245133 306.0256686191226 262.21787778255964 302.0017665082022Q263.76553244060597 297.95405432561955 264.95603602371847 296.0730586643017L264.95603602371847 296.0730586643017Q265.8131986035595 303.2875103779637 266.24177989348004 311.859136176374Q266.67036118340053 320.43076197478433 266.76560147004955 329.3357287764661Q266.8370316850363 338.2406955781479 266.9322719716853 346.8123213765582Q267.00370218667206 355.3839471749685 267.3608532616058 362.76506939026626L267.3608532616058 362.76506939026626Q269.40851942455936 362.76506939026626 272.2419179523672 362.66982910361725Q275.07531648017505 362.59839888863047 278.1468157246054 362.59839888863047Q281.24212504069806 362.59839888863047 284.3374343567906 362.59839888863047Q287.40893360122095 362.59839888863047 289.9804213407441 362.931739891902L289.9804213407441 362.931739891902L290.5042429173136 308.24000528371187ZM323.57643245618 277.57263298273284Q318.1001159738622 276.8821409045276 311.242815335134 277.3107221944481Q304.38551469640583 277.73930348436863 298.2187061358828 277.04881140616334L298.2187061358828 277.04881140616334Q303.52835211656475 296.4302097392355 309.0046685988824 317.16878215705594Q314.50479515286236 337.9073545748764 318.1001159738622 358.64592699269684L318.1001159738622 358.64592699269684Q318.9572785537033 364.31272404831253 317.1477131073722 366.8842117878356Q315.36195773270344 369.4556995273587 311.9333074133393 370.21762182055073Q308.5046570939752 371.003354185405 304.123603908121 370.6462031104712Q299.76636079392915 370.31286210719975 295.6472183963598 370.31286210719975L295.6472183963598 370.31286210719975Q294.7900558165187 375.09868651131217 294.8614860315055 381.52740586011987Q294.95672631815444 387.9561252089276 296.6710514778365 393.09910068797376L296.6710514778365 393.09910068797376Q311.242815335134 393.9562632678148 321.26685550494165 390.88476402338443Q331.2908956747492 387.78945470729184 338.0767660984907 381.88455693505364Q344.8388264505699 375.95584909115314 348.95796884813933 367.9080448693124Q353.0771112457087 359.86024064747164 355.7200292002185 350.93146377412756Q358.3867572263906 342.0264969724458 360.19632267272164 332.76437909583024Q361.9820780473905 323.5022612192147 364.22022478364204 315.0973059224401L364.22022478364204 315.0973059224401Q366.2678909465957 306.19233912075833 368.4107973961982 296.858791029156Q370.5537038458008 287.50143286589145 373.29186208695955 277.21548190779913L373.29186208695955 277.21548190779913Q366.10122044495984 276.7154704028918 360.1010823860727 277.04881140616334Q354.10094432718546 277.38215240943487 348.26747676993404 277.21548190779913L348.26747676993404 277.21548190779913Q346.21981060698045 282.35845738684526 344.8388264505699 290.76341268361983Q343.48165236582156 299.16836798039435 342.3625789976958 308.24000528371187Q341.24350562957 317.3354526586917 340.0530020464575 325.74040795546625Q338.8386883916827 334.14536325224077 336.9576927303649 339.28833873128696L336.9576927303649 339.28833873128696Q335.0766970690471 334.14536325224077 333.19570140772925 326.16898924538674Q331.2908956747492 318.1926152385327 329.57657051506715 309.45431893848667Q327.8622453553851 300.7160226384406 326.33840076900105 292.2158270550171Q324.79074611095473 283.73944154325585 323.57643245618 277.57263298273284L323.57643245618 277.57263298273284Z " fill="#f4a950" transform="matrix(0.9660176104821716,0,0,0.9660176104821716,0,-7.469997188345474)"/><path d="M634.0781459087589 245.9453571800953Q612.6598992859363 243.66190038764864 590.0854720087103 243.7486139367289Q567.4821402151242 243.86423200216925 546.2662252068222 244.06656361668982L546.2662252068222 244.06656361668982Q546.2662252068222 244.26889523121042 546.3818432722626 244.26889523121042Q546.4685568213429 244.26889523121042 546.4685568213429 244.50013136209108L546.4685568213429 244.50013136209108Q546.0638935923016 249.47170817602563 546.0638935923016 254.9057572517215Q546.0638935923016 260.3109018110573 546.1506071413819 264.99343346139096Q546.2662252068222 269.6759651117246 546.5841748867832 272.9999844931344Q546.9021245667441 276.3240038745441 547.3067877957853 277.16223484898654L547.3067877957853 277.16223484898654Q548.549681999269 277.5668980780277 551.671369766158 277.5668980780277Q554.7930575330472 277.5668980780277 558.5506446598581 277.68251614346804Q562.2793272703091 277.7981342089084 566.03691439712 278.08717937250924Q569.794501523931 278.40512905247016 572.2802899308983 279.6480232559538L572.2802899308983 279.6480232559538L572.4826215454189 279.87925938683446Q573.7255157489026 309.01501187779957 574.0434654288634 329.5950275261797Q574.3614151088243 350.20394769091996 574.2457970433841 363.4133116674785Q574.1590834943038 376.6515801603972 573.9567518797832 383.2996189232166Q573.7255157489026 389.9476576860361 573.9567518797832 390.7858886604785L573.9567518797832 390.7858886604785Q577.685434490234 390.1788938169168 582.0500164606068 390.1788938169168Q586.4435029473397 390.1788938169168 590.8947984667927 390.1788938169168Q595.3749985026058 390.1788938169168 599.8551985384188 390.06327575147645Q604.3353985742319 389.9476576860361 608.0640811846829 389.34066284247433L608.0640811846829 389.34066284247433L608.0640811846829 389.1383312279537L608.0640811846829 388.907095097073Q607.6594179556416 366.24595427076684 607.4570863411211 349.48133478191784Q607.2547547266005 332.7167152930689 607.0235185957198 320.7502455199939Q606.8211869811992 308.78377574691893 606.7344734321189 301.2107924605768Q606.6188553666786 293.6089046578746 606.6188553666786 288.9263730075409Q606.6188553666786 284.2438413572072 606.7344734321189 282.04709811384083Q606.8211869811992 279.87925938683446 607.0235185957198 278.8386967978714L607.0235185957198 278.8386967978714Q607.0235185957198 278.60746066699073 607.1391366611601 278.5207471179105Q607.2547547266005 278.40512905247016 607.2547547266005 278.2027974379496L607.2547547266005 278.2027974379496L607.4570863411211 278.2027974379496L607.8617495701623 278.2027974379496Q617.6603806162309 277.7981342089084 623.4701884046078 277.5668980780277Q629.3089007093449 277.3645664635071 633.2688194506765 278.2027974379496L633.2688194506765 278.2027974379496Q634.3093820396396 270.7165277006877 634.3960955887198 261.7561276290615Q634.5117136541601 252.82463207379544 634.0781459087589 245.9453571800953L634.0781459087589 245.9453571800953ZM685.4992805133492 379.33970018188506Q685.7016121278697 382.2590563342536 685.5859940624293 384.54251312670027Q685.4992805133492 386.8259699191469 685.9039437423903 390.3812254314373L685.9039437423903 390.3812254314373Q685.9039437423903 390.9882202749991 687.5804056912751 391.10383834043944Q689.2279631238 391.2194564058798 691.3090883017261 390.9882202749991Q693.3902134796521 390.7858886604785 695.4713386575783 390.4679389805176Q697.5524638355043 390.1788938169168 698.3906948099467 390.1788938169168L698.3906948099467 390.1788938169168Q700.9053877332741 389.9476576860361 702.5529451657989 389.8609441369558Q704.2294071146838 389.7453260715155 705.674632932688 389.7453260715155Q707.1487632670523 389.7453260715155 708.7963206995772 389.8609441369558Q710.472782648462 389.9476576860361 712.9585710554293 390.1788938169168L712.9585710554293 390.1788938169168Q713.7968020298717 362.69069875847646 713.2765207353902 337.1102017798017Q712.7562394409088 311.50080028476685 712.7562394409088 285.891398789732L712.7562394409088 285.891398789732Q707.7557581106141 286.3249665351333 704.4317387292044 286.1226349206127Q701.1077193477946 285.891398789732 698.3906948099467 285.8046852406518Q695.702574788459 285.68906717521145 693.1011683160513 285.891398789732Q690.4997618436437 286.1226349206127 686.9445063313533 287.16319750957575L686.9445063313533 287.16319750957575L686.9445063313533 287.9725239676581Q685.9039437423903 294.85179886135825 686.0195618078307 301.73107375505833Q686.1062753569108 308.58144413239836 686.4242250368718 315.5474325751787Q686.7421747168327 322.5423255343191 686.9445063313533 329.5950275261797Q687.1468379458739 336.6766340344004 686.7421747168327 343.75824054262114L686.7421747168327 343.75824054262114Q686.3375114877915 349.3657167164775 683.8228185644642 352.1983593197658Q681.337030157497 355.00209740669396 678.2153423906078 355.92704193021666Q675.0936546237186 356.8808909700995 671.8563487913892 356.3606096756179Q668.6479474754199 355.84032838113643 666.9714855265349 355.00209740669396L666.9714855265349 355.00209740669396Q666.7691539120143 354.7997657921734 666.5668222974938 354.7997657921734Q666.3355861666131 354.7997657921734 666.1332545520925 354.5685296612927L666.1332545520925 354.5685296612927Q664.4856971195677 353.3256354578091 663.5318480796849 351.04217866536237Q662.6069035561621 348.7587218729157 662.0866222616806 345.83936572054716Q661.5663409671992 342.92000956817867 661.3640093526785 339.9139398667299Q661.132773221798 336.878965648921 660.9304416072773 334.39317724195377L660.9304416072773 334.39317724195377Q660.5257783782362 328.78570106809735 660.4101603127958 322.3110894034385Q660.3234467637155 315.8653822551396 660.4101603127958 309.41967510684077Q660.5257783782362 302.97396795854195 660.5257783782362 296.9329240392843Q660.5257783782362 290.89188012002666 660.0922106328348 286.1226349206127L660.0922106328348 286.1226349206127Q652.8082725100936 286.1226349206127 647.0851782707969 286.00701685517237Q641.3620840315001 285.891398789732 634.0781459087589 286.93196137869506L634.0781459087589 286.93196137869506Q634.5117136541601 294.0135678869158 634.3093820396396 303.3786311875831Q634.0781459087589 312.7436944882505 633.8758142942382 322.83137069791997Q633.6734826797176 332.9479514239495 633.5578646142774 342.83329601909844Q633.4711510651971 352.7186406142473 633.7891007451581 361.04314132595164Q634.0781459087589 369.3676420376559 635.2343265631622 375.29306789147324Q636.3905072175655 381.2184937452906 638.4716323954917 383.0972873086961L638.4716323954917 383.0972873086961Q642.8362143658644 386.8259699191469 648.2413589252002 388.30010025351123Q653.646503484536 389.7453260715155 659.3695977238327 389.5429944569949Q665.0926919631295 389.34066284247433 670.4978365224653 387.4618692790688Q675.9318855981611 385.5830757156633 680.2964675685339 382.46138794877425L680.2964675685339 382.46138794877425Q681.337030157497 381.6231569743318 682.8978740409415 380.81383051624937Q684.4587179243861 379.97559954180696 685.4992805133492 379.33970018188506L685.4992805133492 379.33970018188506ZM755.4193055883934 244.26889523121042Q755.4193055883934 244.06656361668982 752.6155675014652 243.7486139367289Q749.811829414537 243.45956877312807 745.7362926077651 243.34395070768772Q741.6896603173533 243.22833264224738 737.0938422160998 243.34395070768772Q732.5269286312065 243.45956877312807 729.2029092497968 244.06656361668982L729.2029092497968 244.06656361668982L729.2029092497968 257.79620888772996Q729.2029092497968 275.08110967106046 728.7693415043956 292.36601045439096Q728.3646782753543 309.62200672136134 728.0467285953933 326.38662621021035Q727.7287789154325 343.12234118269924 727.6420653663522 359.25106131162636Q727.5264473009119 375.37978144055353 727.9600150463132 390.3812254314373L727.9600150463132 390.3812254314373Q734.4057221946119 390.3812254314373 742.0943235463944 390.6991751113983Q749.811829414537 390.9882202749991 756.0552049483152 390.1788938169168L756.0552049483152 390.1788938169168Q756.2575365628359 389.7453260715155 756.2575365628359 388.70476348255244L756.2575365628359 388.70476348255244Q756.2575365628359 386.6236383046264 756.3442501119162 385.38074410114274Q756.4598681773564 384.1378498976591 756.4598681773564 381.8543931052124L756.4598681773564 381.8543931052124Q756.8645314063976 380.81383051624937 757.3848127008791 380.2935492217679Q757.9050939953606 379.7732679272864 758.5409933552825 381.01616213077L758.5409933552825 381.01616213077Q761.6626811221716 387.25953766454825 766.8654940669868 389.02271316251336Q772.0683070118021 390.7858886604785 777.907019316539 389.9476576860361L777.907019316539 389.9476576860361Q789.7578710241737 389.1383312279537 796.6371459178738 383.81990021769815Q803.4875162952138 378.5014692074426 806.9271537420639 370.29258656117867Q810.3667911889139 362.0837039149147 811.4073537778769 351.88040963980484Q812.44791636684 341.67711536469506 812.8525795958811 331.27148947506464L812.8525795958811 331.27148947506464Q812.8525795958811 323.98755135232335 811.9276350723584 317.1082764586232Q810.9737860324757 310.25790608128324 809.00827891999 304.53481184198654Q807.0427718075042 298.8117176026898 803.8054659751748 294.7361807959179Q800.5681601428454 290.689548505506 796.001246557952 289.01308655662115L796.001246557952 289.01308655662115Q790.3937703840955 286.93196137869506 783.6301135558358 286.4116800842136Q776.8664567275761 285.891398789732 770.8254128083184 286.4116800842136Q764.7843688890607 286.93196137869506 760.6221185332085 288.40609171305937Q756.4598681773564 289.8513175310636 756.0552049483152 291.73011109446907L756.0552049483152 291.73011109446907Q756.2575365628359 281.96038456476055 756.2575365628359 275.91934064550287Q756.2575365628359 269.87829672624525 756.2575365628359 266.2363276648746Q756.2575365628359 262.59435860350396 756.1419184973955 260.6288514910182Q756.0552049483152 258.63443986217237 755.9395868828749 256.87126436420726Q755.8239688174345 255.1080888662421 755.7372552683543 252.91134562287567Q755.621637202914 250.74350689586933 755.4193055883934 246.58125654001716L755.4193055883934 246.58125654001716L755.4193055883934 244.26889523121042ZM787.6767458462476 325.0281139412864Q788.7173084352106 327.94747009365494 788.9196400497312 331.069157860544Q789.1219716642519 334.1908456274332 789.1219716642519 337.1102017798017L789.1219716642519 337.1102017798017Q789.1219716642519 342.3130147246169 787.8790774607683 347.1978779894712Q786.6361832572846 352.08274125432547 784.1503948503173 355.92704193021666Q781.63570192699 359.7713426061079 778.1093509310597 362.0837039149147Q774.5540954187693 364.36716070736134 770.1895134483965 364.36716070736134L770.1895134483965 364.36716070736134Q764.7843688890607 364.36716070736134 761.8650127366922 362.0837039149147Q758.9456565843237 359.7713426061079 757.3848127008791 355.84032838113643Q755.8239688174345 351.88040963980484 755.5349236538337 346.3596470150287Q755.2169739738728 340.8388843902526 755.2169739738728 334.1908456274332L755.2169739738728 334.1908456274332Q755.2169739738728 326.06867653024943 755.5349236538337 321.3861448799157Q755.8239688174345 316.70361322958206 757.0957675372782 314.2178248226148Q758.338661740762 311.7031318992874 760.9400682131695 310.98051899028536Q763.5414746855771 310.25790608128324 767.9060566559499 310.25790608128324L767.9060566559499 310.25790608128324Q776.4328889821747 310.25790608128324 781.5489883779097 313.98658869173414Q786.6361832572846 317.7441758185451 787.6767458462476 325.0281139412864L787.6767458462476 325.0281139412864ZM849.7058379549889 338.35309598328536Q851.7869631329149 338.7577592123265 856.3538767178082 338.9600908268471Q860.9207903027017 339.19132695772777 866.6438845419983 339.19132695772777Q872.3669787812952 339.19132695772777 878.6103543150733 338.9600908268471Q884.8537298488516 338.7577592123265 890.3744924736277 338.35309598328536Q895.8952550984038 337.91952823788404 899.9418873888156 337.5148650088429Q904.0174241955875 337.1102017798017 905.4626500135918 336.6766340344004L905.4626500135918 336.6766340344004Q906.0985493735137 327.94747009365494 905.4626500135918 319.42063776743Q904.85565517003 310.864900924845 901.8206809522211 303.8121989329844Q898.8146112507724 296.7305924247637 892.9758989460353 291.73011109446907Q887.1660911576583 286.7296297641745 877.5697917261103 285.08207233164967L877.5697917261103 285.08207233164967Q870.0835219888485 283.20327876824416 862.1925890225453 283.4056103827648Q854.2727515398823 283.60794199728537 847.1911450316614 285.8046852406518Q840.1095385234408 287.9725239676581 834.5020623495844 292.2503923889506Q828.894586175728 296.5282608102431 826.1775616378801 302.5404002131407L826.1775616378801 302.5404002131407Q823.6917732309129 309.41967510684077 822.9402558055507 316.5879951641417Q822.2176428965486 323.7852197378028 821.6106480529869 331.4738210895852L821.6106480529869 331.4738210895852Q821.1770803075855 340.0006534158101 822.0153112820279 348.55639025839514Q822.8535422564704 357.08322258462005 825.1369990489171 364.68511038732225Q827.4204558413637 372.25809367366435 831.1780429681747 378.61708727288294Q834.9067255786256 384.97608087210153 840.543106268842 388.907095097073L840.543106268842 388.907095097073Q845.5435875991367 391.82645124944156 851.3533953875136 392.66468222388403L851.3533953875136 392.66468222388403Q857.1921076922507 392.66468222388403 864.1580961350311 393.0693454529252Q871.1240845778115 393.5029131983265 877.801027856991 393.0693454529252Q884.4490666198104 392.66468222388403 890.0565427936667 390.58355704595795Q895.6929234838832 388.50243186803186 899.2192744798136 383.50195053773723L899.2192744798136 383.50195053773723Q900.6934048141778 382.2590563342536 901.6183493377006 379.02175050192415Q902.5432938612233 375.8133491859548 903.1791932211452 371.3331491501417Q903.815092581067 366.85294911432857 904.2197558101082 361.6501361695134Q904.6244190391493 356.4473232246982 905.0579867845505 351.04217866536237L905.0579867845505 351.04217866536237Q902.7745299921039 350.40627930544053 899.2192744798136 350.3195657563603Q895.6929234838832 350.20394769091996 891.848622807992 350.40627930544053Q887.9754176157406 350.6375154363212 884.4490666198104 350.72422898540145Q880.9227156238801 350.8398470508418 878.841590445954 350.6375154363212L878.841590445954 350.6375154363212Q879.2462536749953 359.16434776254613 876.2401839735463 363.4133116674785Q873.2052097557375 367.69118008877103 868.8406277853647 368.5294110632135Q864.4760458149921 369.3676420376559 859.8802277137387 367.0552807288492Q855.3133141288453 364.7718239364025 852.827525721878 360.0025787369886L852.827525721878 360.0025787369886Q850.5151644130713 356.24499161017764 850.2261192494703 352.28507286884604Q849.9081695695094 348.32515412751445 849.7058379549889 342.0817785937362L849.7058379549889 342.0817785937362L849.7058379549889 338.35309598328536ZM874.8816717046224 306.0956557254311Q878.6103543150733 307.9744492888366 880.8070975584398 311.7031318992874Q883.0038408018062 315.46071902609845 883.0038408018062 319.6229693819506L883.0038408018062 319.6229693819506Q883.0038408018062 321.2705268144754 883.0038408018062 321.7908081089569Q883.0038408018062 322.3110894034385 881.8476601474027 322.4267074688788Q880.6914794929994 322.5423255343191 878.0033594715115 322.3110894034385Q875.2863349336636 322.10875778891784 869.881190374328 322.10875778891784L869.881190374328 322.10875778891784Q861.9613528916647 322.10875778891784 857.914720601253 322.2243758543582Q853.868088310841 322.3110894034385 851.9892947474356 322.0220442398376Q850.1105011840301 321.7040945598767 849.9948831185897 320.7502455199939Q849.9081695695094 319.8253009964712 850.3128327985506 317.5418442040245L850.3128327985506 317.5418442040245Q850.746400543952 314.8248196661766 851.6713450674746 312.3390312592093Q852.5962895909973 309.824338335882 854.4750831544028 307.9744492888366Q856.3538767178082 306.0956557254311 859.4755644846974 305.05509313646803Q862.5972522515866 304.014530547505 867.5977335818811 304.014530547505L867.5977335818811 304.014530547505Q869.881190374328 304.014530547505 871.5576523232127 304.53481184198654Q873.2052097557375 305.05509313646803 874.8816717046224 306.0956557254311L874.8816717046224 306.0956557254311Z " fill="#161b21" transform="matrix(0.9660176104821716,0,0,0.9660176104821716,0,-7.469997188345474)"/></g></svg>